<svg xmlns="http://www.w3.org/2000/svg" version="1.1" xmlns:xlink="http://www.w3.org/1999/xlink" xmlns:svgjs="http://svgjs.dev/svgjs" width="1000" height="1000" viewBox="0 0 1000 1000"><rect width="1000" height="1000" fill="#ffffff"></rect><g transform="matrix(0.7,0,0,0.7,149.57575757575756,282.1265587044535)"><svg viewBox="0 0 396 247" data-background-color="#6936f5" preserveAspectRatio="xMidYMid meet" height="623" width="1000" xmlns="http://www.w3.org/2000/svg" xmlns:xlink="http://www.w3.org/1999/xlink"><g id="tight-bounds" transform="matrix(1,0,0,1,0.2400000000000091,-0.09999999999999432)"><svg viewBox="0 0 395.52 247.2" height="247.2" width="395.52"><g><svg></svg></g><g><svg viewBox="0 0 395.52 247.2" height="247.2" width="395.52"><g transform="matrix(1,0,0,1,89.85131428571427,47.215199999999996)"><svg viewBox="0 0 215.81737142857145 152.7696" height="152.7696" width="215.81737142857145"><g><svg viewBox="0 0 215.81737142857145 152.7696" height="152.7696" width="215.81737142857145"><g><svg viewBox="0 0 215.81737142857145 152.7696" height="152.7696" width="215.81737142857145"><g><svg viewBox="0 0 215.81737142857145 152.7696" height="152.7696" width="215.81737142857145"><g id="textblocktransform"><svg viewBox="0 0 215.81737142857145 152.7696" height="152.7696" width="215.81737142857145" id="textblock"><g><svg viewBox="0 0 215.81737142857145 152.7696" height="152.7696" width="215.81737142857145"><g transform="matrix(1,0,0,1,0,0)"><svg width="215.81737142857145" viewBox="4.300000190734863 -34.650001525878906 48.95000076293945 34.650001525878906" height="152.7696" data-palette-color="#ffffff"><path d="M9.15-4.2L25.15-4.2 25.15 0 4.3 0 4.3-34.65 9.15-34.65 9.15-4.2ZM48.05-34.65L53.25-34.65Q51.35-29.15 49.62-24.48 47.9-19.8 46.25-15.6 44.6-11.4 42.97-7.58 41.35-3.75 39.65 0L39.65 0 35.1 0Q33.4-3.75 31.77-7.58 30.15-11.4 28.47-15.6 26.8-19.8 25.05-24.48 23.3-29.15 21.45-34.65L21.45-34.65 26.8-34.65Q29.5-26.75 32.1-19.45 34.7-12.15 37.45-5.75L37.45-5.75Q40.2-12.1 42.8-19.43 45.4-26.75 48.05-34.65L48.05-34.65Z" opacity="1" transform="matrix(1,0,0,1,0,0)" fill="#000000" class="wordmark-text-0" data-fill-palette-color="primary" id="text-0"></path></svg></g></svg></g></svg></g></svg></g></svg></g></svg></g></svg></g><path d="M272.153 41.215L272.153 0 24.953 0 24.953 247.2 272.153 247.2 272.153 205.985 258.376 205.985 258.376 233.423 38.73 233.423 38.73 13.777 258.376 13.777 258.376 41.215Z" fill="#000000" stroke="transparent" data-fill-palette-color="primary"></path></svg></g><defs></defs></svg><rect width="395.52" height="247.2" fill="none" stroke="none" visibility="hidden"></rect></g></svg></g></svg>